HIERARCHY
ROOT Hips
{
	OFFSET 0.000000 0.000000 0.000000
	CHANNELS 6 Xposition Yposition Zposition Zrotation Yrotation Xrotation 
	JOINT LHipJoint
	{
		OFFSET 0.000000 0.000000 0.000000
		CHANNELS 3 Zrotation Yrotation Xrotation
		JOINT LeftUpLeg
		{
			OFFSET 1.363060 -1.794630 0.839290
			CHANNELS 3 Zrotation Yrotation Xrotation
			JOINT LeftLeg
			{
				OFFSET 2.448110 -6.726130 0.000000
				CHANNELS 3 Zrotation Yrotation Xrotation
				JOINT LeftFoot
				{
					OFFSET 2.562200 -7.039590 0.000000
					CHANNELS 3 Zrotation Yrotation Xrotation
					JOINT LeftToeBase
					{
						OFFSET 0.157640 -0.433110 2.322550
						CHANNELS 3 Zrotation Yrotation Xrotation
						End Site
						{
							OFFSET 0.000000 0.000000 0.000000
						}
					}
				}
			}
		}
	}
	JOINT RHipJoint
	{
		OFFSET 0.000000 0.000000 0.000000
		CHANNELS 3 Zrotation Yrotation Xrotation
		JOINT RightUpLeg
		{
			OFFSET -1.305520 -1.794630 0.839290
			CHANNELS 3 Zrotation Yrotation Xrotation
			JOINT RightLeg
			{
				OFFSET -2.542530 -6.985550 0.000000
				CHANNELS 3 Zrotation Yrotation Xrotation
				JOINT RightFoot
				{
					OFFSET -2.568260 -7.056230 0.000000
					CHANNELS 3 Zrotation Yrotation Xrotation
					JOINT RightToeBase
					{
						OFFSET -0.164730 -0.452590 2.363150
						CHANNELS 3 Zrotation Yrotation Xrotation
						End Site
						{
							OFFSET 0.000000 0.000000 0.000000
						}
					}
				}
			}
		}
	}
	JOINT LowerBack
	{
		OFFSET 0.000000 0.000000 0.000000
		CHANNELS 3 Zrotation Yrotation Xrotation
		JOINT Spine
		{
			OFFSET 0.028270 2.035590 -0.193380
			CHANNELS 3 Zrotation Yrotation Xrotation
			JOINT Spine1
			{
				OFFSET 0.056720 2.048850 -0.042750
				CHANNELS 3 Zrotation Yrotation Xrotation
				JOINT Neck
				{
					OFFSET 0.000000 0.000000 0.000000
					CHANNELS 3 Zrotation Yrotation Xrotation
					JOINT Neck1
					{
						OFFSET -0.054170 1.746240 0.172020
						CHANNELS 3 Zrotation Yrotation Xrotation
						JOINT Head
						{
							OFFSET 0.104070 1.761360 -0.123970
							CHANNELS 3 Zrotation Yrotation Xrotation
							End Site
							{
								OFFSET 0.000000 0.000000 0.000000
							}
						}
					}
				}
				JOINT LeftShoulder
				{
					OFFSET 0.000000 0.000000 0.000000
					CHANNELS 3 Zrotation Yrotation Xrotation
					JOINT LeftArm
					{
						OFFSET 3.362410 1.200890 -0.311210
						CHANNELS 3 Zrotation Yrotation Xrotation
						JOINT LeftForeArm
						{
							OFFSET 4.983000 -0.000000 -0.000000
							CHANNELS 3 Zrotation Yrotation Xrotation
							JOINT LeftHand
							{
								OFFSET 3.483560 -0.000000 -0.000000
								CHANNELS 3 Zrotation Yrotation Xrotation
								JOINT LeftFingerBase
								{
									OFFSET 0.000000 0.000000 0.000000
									CHANNELS 3 Zrotation Yrotation Xrotation
									JOINT LeftHandIndex1
									{
										OFFSET 0.715260 -0.000000 -0.000000
										CHANNELS 3 Zrotation Yrotation Xrotation
										End Site
										{
											OFFSET 0.000000 0.000000 0.000000
										}
									}
								}
								JOINT LThumb
								{
									OFFSET 0.000000 0.000000 0.000000
									CHANNELS 3 Zrotation Yrotation Xrotation
									End Site
									{
										OFFSET 0.000000 0.000000 0.000000
									}
								}
							}
						}
					}
				}
				JOINT RightShoulder
				{
					OFFSET 0.000000 0.000000 0.000000
					CHANNELS 3 Zrotation Yrotation Xrotation
					JOINT RightArm
					{
						OFFSET -3.136600 1.374050 -0.404650
						CHANNELS 3 Zrotation Yrotation Xrotation
						JOINT RightForeArm
						{
							OFFSET -5.241900 -0.000000 -0.000000
							CHANNELS 3 Zrotation Yrotation Xrotation
							JOINT RightHand
							{
								OFFSET -3.444170 -0.000000 -0.000000
								CHANNELS 3 Zrotation Yrotation Xrotation
								JOINT RightFingerBase
								{
									OFFSET 0.000000 0.000000 0.000000
									CHANNELS 3 Zrotation Yrotation Xrotation
									JOINT RightHandIndex1
									{
										OFFSET -0.622530 -0.000000 -0.000000
										CHANNELS 3 Zrotation Yrotation Xrotation
										End Site
										{
											OFFSET 0.000000 0.000000 0.000000
										}
									}
								}
								JOINT RThumb
								{
									OFFSET 0.000000 0.000000 0.000000
									CHANNELS 3 Zrotation Yrotation Xrotation
									End Site
									{
										OFFSET 0.000000 0.000000 0.000000
									}
								}
							}
						}
					}
				}
			}
		}
	}
}
MOTION
Frames: 5
Frame Time: 0.008333
-0.854838 18.353320 5.520256 -2.341173 0.468214 -2.225396 1.299504 4.327501 4.252041 -11.411073 -8.221357 -4.115676 0.882964 6.533792 21.994654 -0.875841 6.863421 -12.462011 8.561200 -16.516900 -54.559800 -3.378654 -4.357319 2.969111 18.926496 -5.274295 6.087102 0.323290 1.064892 1.722851 0.277752 -3.359804 -9.256788 -0.050000 1.443100 -3.968800 3.520599 0.714339 -2.962096 -1.907097 0.338412 29.323371 -0.603024 0.658833 -19.201653 -1.121387 -3.452771 -32.435337 4.966604 -5.155492 21.483992 0.840100 -1.874700 8.998000 2.714009 -3.949673 -0.710349 -82.787197 -38.760783 62.276102 102.277152 -56.651126 -68.027360 -0.495876 0.735057 -44.945499 28.784501 -9.565353 -5.720900 -7.125000 0.000000 0.000000 1.096700 17.970800 -0.705000 -3.644995 4.504251 -0.340189 53.918711 34.787996 36.169304 -113.607402 52.414619 -75.714109 -0.113188 0.290738 -48.249531 26.139685 -55.460968 -21.985500 7.125000 0.000000 0.000000 92.671400 -63.464000 -63.072200 
-0.852190 18.352829 5.511037 -2.408943 0.167255 -2.183125 1.335132 4.334045 4.245623 -11.392862 -8.150989 -4.128408 0.875885 6.529302 21.984170 -0.894672 6.977890 -12.605793 8.546100 -16.506600 -54.506700 -3.342376 -4.348583 2.973799 18.977816 -4.971047 6.052636 0.323598 1.062451 1.719993 0.283046 -3.384877 -9.232285 -0.047300 1.403300 -3.859100 3.421698 0.734167 -2.946276 -1.513407 0.311045 29.316477 -0.755636 0.659426 -19.207754 -1.179157 -3.430247 -32.233885 4.926549 -5.067415 21.464700 0.833300 -1.838400 8.963900 2.651314 -3.929612 -0.696680 -82.705400 -38.497249 62.070655 102.106463 -56.657888 -67.847386 -0.498235 0.741165 -45.169068 28.812776 -9.273679 -5.574400 -7.125000 0.000000 0.000000 1.134500 18.290000 -0.721300 -3.689943 4.525700 -0.424003 55.586769 35.572447 35.495460 -113.853873 52.315056 -75.978530 -0.065139 0.288337 -48.619408 22.285002 -55.500811 -18.588700 7.125000 0.000000 0.000000 90.722000 -64.684500 -62.570600 
-0.850228 18.353712 5.500739 -2.389499 -0.212689 -2.095940 1.339412 4.333166 4.231716 -11.444819 -8.098424 -4.134557 0.859894 6.520665 21.946908 -0.924531 7.162504 -12.826450 8.499600 -16.474700 -54.342800 -3.337318 -4.336598 2.959416 18.977642 -4.580360 5.992549 0.324494 1.059582 1.716056 0.300976 -3.467888 -9.158789 -0.055700 1.522600 -4.188000 3.394350 0.799926 -2.877724 -1.383965 0.391804 29.180143 -0.872450 0.700483 -19.219609 -1.406347 -3.482978 -32.120436 5.172438 -5.108320 21.660708 0.890200 -1.833000 8.994700 2.614418 -3.924640 -0.666672 -82.761356 -38.288282 61.939631 101.983377 -56.662620 -67.715627 -0.500963 0.748284 -45.346768 28.910607 -9.326798 -5.628800 -7.125000 0.000000 0.000000 1.194500 18.209900 -0.761600 -3.670652 4.540334 -0.481727 57.490315 36.298759 35.086070 -113.589988 52.311554 -75.752935 0.053494 0.295366 -47.962355 17.425182 -56.280884 -14.460100 7.125000 0.000000 0.000000 89.859000 -66.377000 -63.910100 
-0.848365 18.355870 5.490539 -2.264733 -0.567255 -1.981095 1.313895 4.324689 4.213975 -11.573782 -8.003018 -4.177737 0.841781 6.508659 21.891705 -0.948212 7.312780 -13.006355 8.477600 -16.459500 -54.265200 -3.360489 -4.326156 2.933783 18.892576 -4.208066 5.908540 0.325167 1.056844 1.712374 0.314507 -3.531798 -9.106766 -0.063200 1.622400 -4.463300 3.391370 0.878569 -2.788774 -1.533961 0.533173 28.971692 -0.894588 0.764942 -19.223801 -1.605367 -3.543173 -32.032343 5.444245 -5.184909 21.906521 0.946600 -1.839600 9.038300 2.603730 -3.926945 -0.633984 -82.944721 -38.137348 61.836697 102.020097 -56.651296 -67.740975 -0.503672 0.754252 -45.302404 28.983836 -9.555156 -5.772300 -7.125000 0.000000 0.000000 1.226100 17.934400 -0.789100 -3.607340 4.555046 -0.510095 59.486816 36.877502 35.175806 -112.879049 52.414267 -75.075011 0.271651 0.270071 -45.858632 8.613851 -56.246583 -6.865000 7.125000 0.000000 0.000000 85.472900 -69.264400 -62.998600 
-0.845423 18.357831 5.481712 -2.124243 -0.883417 -1.855256 1.271668 4.315543 4.198993 -11.703679 -7.911112 -4.234025 0.822537 6.495805 21.827846 -0.978914 7.479578 -13.141583 8.479200 -16.460600 -54.270800 -3.400723 -4.316373 2.905623 18.806828 -3.878017 5.821320 0.325931 1.055345 1.709840 0.320244 -3.564206 -9.098523 -0.063500 1.626200 -4.473600 3.471909 0.963227 -2.734503 -1.864347 0.709049 28.773346 -0.872088 0.833186 -19.203425 -1.694729 -3.584844 -31.996293 5.597546 -5.252721 22.186520 0.966700 -1.848900 9.095300 2.609179 -3.932225 -0.605783 -83.249279 -38.063892 61.785932 102.107129 -56.636280 -67.815941 -0.506512 0.759990 -44.980068 29.067345 -9.747007 -5.900700 -7.125000 0.000000 0.000000 1.270500 17.697900 -0.824300 -3.518965 4.563753 -0.517592 61.166459 37.375682 35.708161 -111.568828 52.643052 -73.808512 0.461577 0.244811 -42.519488 2.259875 -57.256584 -1.473900 7.125000 0.000000 0.000000 85.527100 -71.549400 -65.864800 
